<svg id="visual" viewBox="0 0 1920 1280" width="1920" height="1280" xmlns="http://www.w3.org/2000/svg" xmlns:xlink="http://www.w3.org/1999/xlink" version="1.1"><rect x="0" y="0" width="1920" height="1280" fill="#efefef"></rect><defs><linearGradient id="grad1_0" x1="33.3%" y1="0%" x2="100%" y2="100%"><stop offset="20%" stop-color="#efefef" stop-opacity="1"></stop><stop offset="80%" stop-color="#efefef" stop-opacity="1"></stop></linearGradient></defs><defs><linearGradient id="grad2_0" x1="0%" y1="0%" x2="66.7%" y2="100%"><stop offset="20%" stop-color="#efefef" stop-opacity="1"></stop><stop offset="80%" stop-color="#efefef" stop-opacity="1"></stop></linearGradient></defs><g transform="translate(1920, 0)"><path d="M0 519.2C-64 488.7 -128 458.3 -174.1 420.4C-220.3 382.5 -248.6 337.1 -303.3 303.3C-358.1 269.6 -439.3 247.3 -479.7 198.7C-520.1 150.1 -519.6 75 -519.2 0L0 0Z" fill="#014268"></path></g><g transform="translate(0, 1280)"><path d="M0 -519.2C60.3 -486.2 120.5 -453.1 175.7 -424.1C230.8 -395 280.8 -369.9 335.2 -335.2C389.5 -300.5 448.3 -256.2 479.7 -198.7C511.1 -141.2 515.1 -70.6 519.2 0L0 0Z" fill="#014268"></path></g></svg>